<?xml version="1.0" encoding="UTF-8" standalone="no"?>
<svg width="372px" height="80px" viewBox="0 0 372 80" version="1.1" xmlns="http://www.w3.org/2000/svg" xmlns:xlink="http://www.w3.org/1999/xlink">
    <!-- Generator: Sketch 44.1 (41455) - http://www.bohemiancoding.com/sketch -->
    <title>logo</title>
    <desc>Created with Sketch.</desc>
    <defs>
        <polygon id="path-1" points="0 79.9836177 68.8693929 79.9836177 68.8693929 0.151262799 0 0.151262799"></polygon>
    </defs>
    <g id="Symbols" stroke="none" stroke-width="1" fill="none" fill-rule="evenodd">
        <g id="Header/Desktop" transform="translate(-130.000000, -20.000000)">
            <g id="Header">
                <g id="logo" transform="translate(130.000000, 20.000000)">
                    <g id="Name" transform="translate(84.000000, 17.000000)" fill="#FFFFFF">
                        <path d="M9.785,48.323 C11.001,48.323 12.445,48.19 13.205,47.886 C13.547,47.734 13.585,47.696 13.699,47.335 C13.889,46.689 14.117,45.036 14.117,44.903 C14.117,44.751 14.079,44.618 13.984,44.618 C13.87,44.618 13.832,44.694 13.794,44.903 C13.737,45.245 13.49,46.081 13.091,46.499 C12.331,47.278 11.21,47.449 9.785,47.449 C5.719,47.449 2.926,44.124 2.926,40.495 C2.926,38.557 3.249,36.866 4.636,35.536 C5.301,34.89 6.479,34.149 9.006,34.149 C10.678,34.149 12.141,34.662 12.806,35.232 C13.3,35.65 13.604,36.429 13.604,37.17 C13.604,37.436 13.623,37.569 13.756,37.569 C13.87,37.569 13.908,37.455 13.927,37.17 C13.946,36.885 13.946,35.84 13.984,35.213 C14.022,34.529 14.079,34.301 14.079,34.149 C14.079,34.035 14.041,33.959 13.908,33.94 C13.205,33.845 12.616,33.788 11.894,33.655 C10.963,33.484 9.899,33.427 9.139,33.427 C6.213,33.427 4.484,34.32 3.344,35.46 C1.653,37.151 1.216,39.374 1.216,40.647 C1.216,42.452 1.672,44.618 3.515,46.271 C5.016,47.62 6.935,48.323 9.785,48.323 Z M23.835,42.452 L19.75,42.452 C19.655,42.452 19.598,42.509 19.56,42.604 L18.42,45.967 C18.249,46.442 18.154,46.898 18.154,47.24 C18.154,47.62 18.515,47.791 18.838,47.791 L19.009,47.791 C19.199,47.791 19.256,47.829 19.256,47.905 C19.256,48.019 19.085,48.057 18.914,48.057 C18.458,48.057 17.698,48 17.489,48 C17.28,48 16.235,48.057 15.342,48.057 C15.095,48.057 14.981,48.019 14.981,47.905 C14.981,47.829 15.076,47.791 15.247,47.791 C15.38,47.791 15.551,47.772 15.703,47.753 C16.577,47.639 16.957,46.917 17.299,45.967 L21.612,34.168 C21.84,33.541 21.916,33.427 22.03,33.427 C22.144,33.427 22.22,33.522 22.448,34.111 C22.733,34.833 25.716,42.68 26.875,45.568 C27.559,47.259 28.11,47.563 28.509,47.677 C28.794,47.772 29.098,47.791 29.25,47.791 C29.364,47.791 29.459,47.81 29.459,47.905 C29.459,48.019 29.288,48.057 29.079,48.057 C28.794,48.057 27.407,48.057 26.096,48.019 C25.735,48 25.526,48 25.526,47.886 C25.526,47.81 25.583,47.772 25.659,47.753 C25.773,47.715 25.887,47.544 25.773,47.24 L24.006,42.566 C23.968,42.49 23.93,42.452 23.835,42.452 Z M19.959,41.768 L23.588,41.768 C23.683,41.768 23.683,41.711 23.664,41.635 L21.859,36.505 C21.764,36.22 21.669,36.22 21.574,36.505 L19.902,41.635 C19.864,41.73 19.902,41.768 19.959,41.768 Z M34.693,34.51 L34.693,42.547 C34.693,44.371 34.693,45.872 34.788,46.67 C34.845,47.221 34.959,47.639 35.529,47.715 C35.795,47.753 36.213,47.791 36.384,47.791 C36.498,47.791 36.536,47.848 36.536,47.905 C36.536,48 36.441,48.057 36.232,48.057 C35.187,48.057 33.99,48 33.895,48 C33.8,48 32.603,48.057 32.033,48.057 C31.824,48.057 31.729,48.019 31.729,47.905 C31.729,47.848 31.767,47.791 31.881,47.791 C32.052,47.791 32.28,47.753 32.451,47.715 C32.831,47.639 32.926,47.221 33.002,46.67 C33.097,45.872 33.097,44.371 33.097,42.547 L33.097,34.51 C32.166,34.529 31.216,34.529 30.285,34.548 C29.107,34.567 28.651,34.7 28.347,35.156 C28.138,35.479 28.081,35.612 28.024,35.745 C27.967,35.897 27.91,35.935 27.834,35.935 C27.777,35.935 27.739,35.878 27.739,35.764 C27.739,35.574 28.119,33.94 28.157,33.788 C28.195,33.674 28.271,33.427 28.347,33.427 C28.48,33.427 28.67,33.617 29.183,33.655 C29.734,33.712 30.456,33.75 30.684,33.75 L37.809,33.75 C38.417,33.75 38.854,33.712 39.158,33.655 C39.443,33.617 39.614,33.56 39.69,33.56 C39.785,33.56 39.785,33.674 39.785,33.788 C39.785,34.358 39.728,35.669 39.728,35.878 C39.728,36.049 39.671,36.125 39.595,36.125 C39.5,36.125 39.462,36.068 39.443,35.802 C39.443,35.726 39.424,35.669 39.424,35.593 C39.367,35.023 38.911,34.586 37.087,34.548 C36.289,34.529 35.491,34.529 34.693,34.51 Z M45.285,39.716 C45.228,39.716 45.171,39.697 45.171,39.602 L45.171,39.203 C45.171,36.239 45.171,35.707 45.209,35.099 C45.247,34.434 45.399,34.111 45.912,34.016 C46.14,33.978 46.254,33.959 46.387,33.959 C46.463,33.959 46.539,33.921 46.539,33.845 C46.539,33.731 46.444,33.693 46.235,33.693 C45.665,33.693 44.468,33.75 44.373,33.75 C44.278,33.75 43.081,33.693 42.226,33.693 C42.017,33.693 41.922,33.731 41.922,33.845 C41.922,33.921 41.998,33.959 42.074,33.959 C42.245,33.959 42.568,33.978 42.72,34.016 C43.347,34.149 43.499,34.453 43.537,35.099 C43.575,35.707 43.575,36.239 43.575,39.203 L43.575,42.547 C43.575,44.371 43.575,45.872 43.48,46.67 C43.404,47.221 43.309,47.639 42.929,47.715 C42.758,47.753 42.53,47.791 42.359,47.791 C42.245,47.791 42.207,47.848 42.207,47.905 C42.207,48.019 42.302,48.057 42.511,48.057 C43.081,48.057 44.278,48 44.373,48 C44.468,48 45.665,48.057 46.71,48.057 C46.919,48.057 47.014,48 47.014,47.905 C47.014,47.848 46.976,47.791 46.862,47.791 C46.691,47.791 46.273,47.753 46.007,47.715 C45.437,47.639 45.323,47.221 45.266,46.67 C45.171,45.872 45.171,44.371 45.171,42.547 L45.171,40.552 C45.171,40.457 45.228,40.438 45.285,40.438 L53.341,40.438 C53.398,40.438 53.455,40.476 53.455,40.552 L53.455,42.547 C53.455,44.371 53.455,45.872 53.36,46.67 C53.284,47.221 53.189,47.639 52.809,47.715 C52.638,47.753 52.41,47.791 52.239,47.791 C52.125,47.791 52.087,47.848 52.087,47.905 C52.087,48.019 52.182,48.057 52.391,48.057 C52.961,48.057 54.158,48 54.253,48 C54.348,48 55.545,48.057 56.59,48.057 C56.799,48.057 56.894,48 56.894,47.905 C56.894,47.848 56.856,47.791 56.742,47.791 C56.571,47.791 56.153,47.753 55.887,47.715 C55.317,47.639 55.203,47.221 55.146,46.67 C55.051,45.872 55.051,44.371 55.051,42.547 L55.051,39.203 C55.051,36.239 55.051,35.707 55.089,35.099 C55.127,34.434 55.279,34.111 55.792,34.016 C56.02,33.978 56.134,33.959 56.267,33.959 C56.343,33.959 56.419,33.921 56.419,33.845 C56.419,33.731 56.324,33.693 56.115,33.693 C55.545,33.693 54.348,33.75 54.253,33.75 C54.158,33.75 52.961,33.693 52.106,33.693 C51.897,33.693 51.802,33.731 51.802,33.845 C51.802,33.921 51.878,33.959 51.954,33.959 C52.125,33.959 52.448,33.978 52.6,34.016 C53.227,34.149 53.379,34.453 53.417,35.099 C53.455,35.707 53.455,36.239 53.455,39.203 L53.455,39.602 C53.455,39.697 53.398,39.716 53.341,39.716 L45.285,39.716 Z M66.498,48.323 C61.292,48.323 59.126,44.276 59.126,40.856 C59.126,37.778 61.368,33.427 66.612,33.427 C70.887,33.427 74.079,36.125 74.079,40.552 C74.079,44.808 71.077,48.323 66.498,48.323 Z M67.011,47.601 C68.721,47.601 72.255,46.613 72.255,41.084 C72.255,36.524 69.481,34.073 66.479,34.073 C63.306,34.073 60.931,36.163 60.931,40.324 C60.931,44.751 63.591,47.601 67.011,47.601 Z M79.788,39.203 C79.788,36.239 79.788,35.707 79.826,35.099 C79.864,34.434 80.016,34.111 80.567,34.016 C80.795,33.978 81.061,33.959 81.194,33.959 C81.27,33.959 81.346,33.921 81.346,33.845 C81.346,33.731 81.251,33.693 81.042,33.693 C80.472,33.693 79.085,33.75 78.99,33.75 C78.895,33.75 77.698,33.693 76.843,33.693 C76.634,33.693 76.539,33.731 76.539,33.845 C76.539,33.921 76.615,33.959 76.691,33.959 C76.862,33.959 77.185,33.978 77.337,34.016 C77.964,34.149 78.116,34.453 78.154,35.099 C78.192,35.707 78.192,36.239 78.192,39.203 L78.192,42.547 C78.192,44.371 78.192,45.872 78.097,46.67 C78.021,47.221 77.926,47.639 77.546,47.715 C77.375,47.753 77.147,47.791 76.976,47.791 C76.862,47.791 76.824,47.848 76.824,47.905 C76.824,48.019 76.919,48.057 77.128,48.057 C77.831,48.057 78.401,48 78.99,48 C80.833,48 82.448,48.114 84.082,48.114 C85.089,48.114 85.146,48.038 85.279,47.601 C85.431,47.05 85.564,45.91 85.564,45.701 C85.564,45.492 85.545,45.416 85.45,45.416 C85.336,45.416 85.298,45.511 85.279,45.663 C85.222,46.024 85.032,46.499 84.785,46.803 C84.329,47.354 83.493,47.373 82.486,47.373 C81.004,47.373 80.51,47.24 80.206,46.936 C79.864,46.594 79.788,45.378 79.788,42.585 L79.788,39.203 Z M89.012,42.547 C89.012,44.371 89.012,45.872 88.917,46.67 C88.841,47.221 88.727,47.658 88.347,47.734 C88.176,47.772 87.967,47.791 87.853,47.791 C87.682,47.791 87.644,47.848 87.644,47.905 C87.644,48.019 87.739,48.057 87.948,48.057 C88.518,48.057 89.715,48 89.81,48 C89.905,48 91.121,48.057 92.166,48.057 C92.375,48.057 92.451,48 92.451,47.905 C92.451,47.848 92.394,47.791 92.223,47.791 C92.109,47.791 91.71,47.753 91.444,47.715 C90.874,47.639 90.76,47.221 90.703,46.67 C90.608,45.872 90.608,44.371 90.608,42.547 L90.608,39.203 C90.608,36.239 90.608,35.707 90.646,35.099 C90.684,34.434 90.836,34.111 91.349,34.016 C91.577,33.978 91.691,33.959 91.824,33.959 C91.9,33.959 91.976,33.921 91.976,33.845 C91.976,33.731 91.881,33.693 91.672,33.693 C91.102,33.693 89.905,33.75 89.81,33.75 C89.715,33.75 88.518,33.693 87.891,33.693 C87.682,33.693 87.587,33.731 87.587,33.845 C87.587,33.921 87.663,33.959 87.739,33.959 C87.872,33.959 88.119,33.978 88.328,34.035 C88.746,34.13 88.936,34.453 88.974,35.099 C89.012,35.707 89.012,36.239 89.012,39.203 L89.012,42.547 Z M103.29,48.323 C104.506,48.323 105.95,48.19 106.71,47.886 C107.052,47.734 107.09,47.696 107.204,47.335 C107.394,46.689 107.622,45.036 107.622,44.903 C107.622,44.751 107.584,44.618 107.489,44.618 C107.375,44.618 107.337,44.694 107.299,44.903 C107.242,45.245 106.995,46.081 106.596,46.499 C105.836,47.278 104.715,47.449 103.29,47.449 C99.224,47.449 96.431,44.124 96.431,40.495 C96.431,38.557 96.754,36.866 98.141,35.536 C98.806,34.89 99.984,34.149 102.511,34.149 C104.183,34.149 105.646,34.662 106.311,35.232 C106.805,35.65 107.109,36.429 107.109,37.17 C107.109,37.436 107.128,37.569 107.261,37.569 C107.375,37.569 107.413,37.455 107.432,37.17 C107.451,36.885 107.451,35.84 107.489,35.213 C107.527,34.529 107.584,34.301 107.584,34.149 C107.584,34.035 107.546,33.959 107.413,33.94 C106.71,33.845 106.121,33.788 105.399,33.655 C104.468,33.484 103.404,33.427 102.644,33.427 C99.718,33.427 97.989,34.32 96.849,35.46 C95.158,37.151 94.721,39.374 94.721,40.647 C94.721,42.452 95.177,44.618 97.02,46.271 C98.521,47.62 100.44,48.323 103.29,48.323 Z M119.667,39.716 C119.61,39.716 119.553,39.697 119.553,39.602 L119.553,39.203 C119.553,36.239 119.553,35.707 119.591,35.099 C119.629,34.434 119.781,34.111 120.294,34.016 C120.522,33.978 120.636,33.959 120.769,33.959 C120.845,33.959 120.921,33.921 120.921,33.845 C120.921,33.731 120.826,33.693 120.617,33.693 C120.047,33.693 118.85,33.75 118.755,33.75 C118.66,33.75 117.463,33.693 116.608,33.693 C116.399,33.693 116.304,33.731 116.304,33.845 C116.304,33.921 116.38,33.959 116.456,33.959 C116.627,33.959 116.95,33.978 117.102,34.016 C117.729,34.149 117.881,34.453 117.919,35.099 C117.957,35.707 117.957,36.239 117.957,39.203 L117.957,42.547 C117.957,44.371 117.957,45.872 117.862,46.67 C117.786,47.221 117.691,47.639 117.311,47.715 C117.14,47.753 116.912,47.791 116.741,47.791 C116.627,47.791 116.589,47.848 116.589,47.905 C116.589,48.019 116.684,48.057 116.893,48.057 C117.463,48.057 118.66,48 118.755,48 C118.85,48 120.047,48.057 121.092,48.057 C121.301,48.057 121.396,48 121.396,47.905 C121.396,47.848 121.358,47.791 121.244,47.791 C121.073,47.791 120.655,47.753 120.389,47.715 C119.819,47.639 119.705,47.221 119.648,46.67 C119.553,45.872 119.553,44.371 119.553,42.547 L119.553,40.552 C119.553,40.457 119.61,40.438 119.667,40.438 L127.723,40.438 C127.78,40.438 127.837,40.476 127.837,40.552 L127.837,42.547 C127.837,44.371 127.837,45.872 127.742,46.67 C127.666,47.221 127.571,47.639 127.191,47.715 C127.02,47.753 126.792,47.791 126.621,47.791 C126.507,47.791 126.469,47.848 126.469,47.905 C126.469,48.019 126.564,48.057 126.773,48.057 C127.343,48.057 128.54,48 128.635,48 C128.73,48 129.927,48.057 130.972,48.057 C131.181,48.057 131.276,48 131.276,47.905 C131.276,47.848 131.238,47.791 131.124,47.791 C130.953,47.791 130.535,47.753 130.269,47.715 C129.699,47.639 129.585,47.221 129.528,46.67 C129.433,45.872 129.433,44.371 129.433,42.547 L129.433,39.203 C129.433,36.239 129.433,35.707 129.471,35.099 C129.509,34.434 129.661,34.111 130.174,34.016 C130.402,33.978 130.516,33.959 130.649,33.959 C130.725,33.959 130.801,33.921 130.801,33.845 C130.801,33.731 130.706,33.693 130.497,33.693 C129.927,33.693 128.73,33.75 128.635,33.75 C128.54,33.75 127.343,33.693 126.488,33.693 C126.279,33.693 126.184,33.731 126.184,33.845 C126.184,33.921 126.26,33.959 126.336,33.959 C126.507,33.959 126.83,33.978 126.982,34.016 C127.609,34.149 127.761,34.453 127.799,35.099 C127.837,35.707 127.837,36.239 127.837,39.203 L127.837,39.602 C127.837,39.697 127.78,39.716 127.723,39.716 L119.667,39.716 Z M135.959,42.547 C135.959,44.371 135.959,45.872 135.864,46.67 C135.788,47.221 135.674,47.658 135.294,47.734 C135.123,47.772 134.914,47.791 134.8,47.791 C134.629,47.791 134.591,47.848 134.591,47.905 C134.591,48.019 134.686,48.057 134.895,48.057 C135.465,48.057 136.662,48 136.757,48 C136.852,48 138.068,48.057 139.113,48.057 C139.322,48.057 139.398,48 139.398,47.905 C139.398,47.848 139.341,47.791 139.17,47.791 C139.056,47.791 138.657,47.753 138.391,47.715 C137.821,47.639 137.707,47.221 137.65,46.67 C137.555,45.872 137.555,44.371 137.555,42.547 L137.555,39.203 C137.555,36.239 137.555,35.707 137.593,35.099 C137.631,34.434 137.783,34.111 138.296,34.016 C138.524,33.978 138.638,33.959 138.771,33.959 C138.847,33.959 138.923,33.921 138.923,33.845 C138.923,33.731 138.828,33.693 138.619,33.693 C138.049,33.693 136.852,33.75 136.757,33.75 C136.662,33.75 135.465,33.693 134.838,33.693 C134.629,33.693 134.534,33.731 134.534,33.845 C134.534,33.921 134.61,33.959 134.686,33.959 C134.819,33.959 135.066,33.978 135.275,34.035 C135.693,34.13 135.883,34.453 135.921,35.099 C135.959,35.707 135.959,36.239 135.959,39.203 L135.959,42.547 Z M154.455,44.314 C154.455,43.516 154.455,42.946 154.493,42.338 C154.531,41.673 154.683,41.35 155.196,41.255 C155.424,41.217 155.538,41.198 155.671,41.198 C155.747,41.198 155.823,41.16 155.823,41.084 C155.823,40.97 155.728,40.932 155.519,40.932 C154.949,40.932 153.752,40.989 153.657,40.989 C153.562,40.989 152.365,40.932 151.51,40.932 C151.301,40.932 151.206,40.97 151.206,41.084 C151.206,41.16 151.282,41.198 151.358,41.198 C151.529,41.198 151.852,41.217 152.004,41.255 C152.764,41.464 152.859,41.673 152.859,43.212 L152.859,46.442 C152.859,46.765 152.726,46.974 152.479,47.107 C151.985,47.392 150.997,47.506 150.313,47.506 C148.565,47.506 146.836,46.936 145.335,45.473 C144.67,44.827 143.321,42.889 143.321,40.21 C143.321,37.987 144.1,36.258 145.202,35.384 C146.646,34.244 148.071,34.13 149.268,34.13 C151.719,34.13 153.258,34.947 153.733,35.669 C154.018,36.125 154.113,36.657 154.132,36.923 C154.151,37.094 154.17,37.208 154.265,37.208 C154.398,37.208 154.436,37.113 154.436,36.809 C154.436,34.909 154.569,34.377 154.569,34.111 C154.569,34.035 154.531,33.959 154.341,33.94 C153.866,33.921 153.201,33.845 152.802,33.75 C152.441,33.674 151.092,33.427 149.895,33.427 C148.432,33.427 146.551,33.56 144.841,34.624 C143.15,35.688 141.668,37.835 141.668,40.875 C141.668,43.25 142.77,45.283 143.929,46.29 C146.038,48.133 148.736,48.323 150.18,48.323 C151.282,48.323 152.992,48.114 154.208,47.468 C154.436,47.335 154.455,47.297 154.455,46.442 L154.455,44.314 Z M161.722,39.716 C161.665,39.716 161.608,39.697 161.608,39.602 L161.608,39.203 C161.608,36.239 161.608,35.707 161.646,35.099 C161.684,34.434 161.836,34.111 162.349,34.016 C162.577,33.978 162.691,33.959 162.824,33.959 C162.9,33.959 162.976,33.921 162.976,33.845 C162.976,33.731 162.881,33.693 162.672,33.693 C162.102,33.693 160.905,33.75 160.81,33.75 C160.715,33.75 159.518,33.693 158.663,33.693 C158.454,33.693 158.359,33.731 158.359,33.845 C158.359,33.921 158.435,33.959 158.511,33.959 C158.682,33.959 159.005,33.978 159.157,34.016 C159.784,34.149 159.936,34.453 159.974,35.099 C160.012,35.707 160.012,36.239 160.012,39.203 L160.012,42.547 C160.012,44.371 160.012,45.872 159.917,46.67 C159.841,47.221 159.746,47.639 159.366,47.715 C159.195,47.753 158.967,47.791 158.796,47.791 C158.682,47.791 158.644,47.848 158.644,47.905 C158.644,48.019 158.739,48.057 158.948,48.057 C159.518,48.057 160.715,48 160.81,48 C160.905,48 162.102,48.057 163.147,48.057 C163.356,48.057 163.451,48 163.451,47.905 C163.451,47.848 163.413,47.791 163.299,47.791 C163.128,47.791 162.71,47.753 162.444,47.715 C161.874,47.639 161.76,47.221 161.703,46.67 C161.608,45.872 161.608,44.371 161.608,42.547 L161.608,40.552 C161.608,40.457 161.665,40.438 161.722,40.438 L169.778,40.438 C169.835,40.438 169.892,40.476 169.892,40.552 L169.892,42.547 C169.892,44.371 169.892,45.872 169.797,46.67 C169.721,47.221 169.626,47.639 169.246,47.715 C169.075,47.753 168.847,47.791 168.676,47.791 C168.562,47.791 168.524,47.848 168.524,47.905 C168.524,48.019 168.619,48.057 168.828,48.057 C169.398,48.057 170.595,48 170.69,48 C170.785,48 171.982,48.057 173.027,48.057 C173.236,48.057 173.331,48 173.331,47.905 C173.331,47.848 173.293,47.791 173.179,47.791 C173.008,47.791 172.59,47.753 172.324,47.715 C171.754,47.639 171.64,47.221 171.583,46.67 C171.488,45.872 171.488,44.371 171.488,42.547 L171.488,39.203 C171.488,36.239 171.488,35.707 171.526,35.099 C171.564,34.434 171.716,34.111 172.229,34.016 C172.457,33.978 172.571,33.959 172.704,33.959 C172.78,33.959 172.856,33.921 172.856,33.845 C172.856,33.731 172.761,33.693 172.552,33.693 C171.982,33.693 170.785,33.75 170.69,33.75 C170.595,33.75 169.398,33.693 168.543,33.693 C168.334,33.693 168.239,33.731 168.239,33.845 C168.239,33.921 168.315,33.959 168.391,33.959 C168.562,33.959 168.885,33.978 169.037,34.016 C169.664,34.149 169.816,34.453 169.854,35.099 C169.892,35.707 169.892,36.239 169.892,39.203 L169.892,39.602 C169.892,39.697 169.835,39.716 169.778,39.716 L161.722,39.716 Z M185.319,48.323 C186.345,48.323 187.371,48.095 188.188,47.525 C189.499,46.594 189.803,45.15 189.803,44.371 C189.803,42.851 189.271,41.673 187.029,39.906 L186.497,39.488 C184.673,38.063 184.179,37.379 184.179,36.296 C184.179,34.909 185.205,34.092 186.516,34.092 C188.264,34.092 188.777,34.89 188.891,35.099 C189.005,35.308 189.119,35.821 189.138,36.049 C189.157,36.201 189.176,36.296 189.29,36.296 C189.385,36.296 189.423,36.163 189.423,35.859 C189.423,34.567 189.499,33.94 189.499,33.845 C189.499,33.75 189.461,33.712 189.309,33.712 C189.157,33.712 189.005,33.693 188.644,33.617 C188.169,33.503 187.618,33.427 186.877,33.427 C184.464,33.427 182.944,34.814 182.944,36.847 C182.944,38.139 183.4,39.317 185.414,40.97 L186.269,41.673 C187.903,43.022 188.454,43.782 188.454,45.093 C188.454,46.309 187.561,47.62 185.737,47.62 C184.464,47.62 183.21,47.088 182.925,45.682 C182.868,45.416 182.868,45.15 182.868,44.979 C182.868,44.827 182.849,44.77 182.735,44.77 C182.64,44.77 182.602,44.865 182.583,45.074 C182.564,45.378 182.488,46.138 182.488,47.088 C182.488,47.601 182.507,47.677 182.773,47.81 C183.552,48.19 184.426,48.323 185.319,48.323 Z M201.022,48.323 C202.238,48.323 203.682,48.19 204.442,47.886 C204.784,47.734 204.822,47.696 204.936,47.335 C205.126,46.689 205.354,45.036 205.354,44.903 C205.354,44.751 205.316,44.618 205.221,44.618 C205.107,44.618 205.069,44.694 205.031,44.903 C204.974,45.245 204.727,46.081 204.328,46.499 C203.568,47.278 202.447,47.449 201.022,47.449 C196.956,47.449 194.163,44.124 194.163,40.495 C194.163,38.557 194.486,36.866 195.873,35.536 C196.538,34.89 197.716,34.149 200.243,34.149 C201.915,34.149 203.378,34.662 204.043,35.232 C204.537,35.65 204.841,36.429 204.841,37.17 C204.841,37.436 204.86,37.569 204.993,37.569 C205.107,37.569 205.145,37.455 205.164,37.17 C205.183,36.885 205.183,35.84 205.221,35.213 C205.259,34.529 205.316,34.301 205.316,34.149 C205.316,34.035 205.278,33.959 205.145,33.94 C204.442,33.845 203.853,33.788 203.131,33.655 C202.2,33.484 201.136,33.427 200.376,33.427 C197.45,33.427 195.721,34.32 194.581,35.46 C192.89,37.151 192.453,39.374 192.453,40.647 C192.453,42.452 192.909,44.618 194.752,46.271 C196.253,47.62 198.172,48.323 201.022,48.323 Z M211.044,39.716 C210.987,39.716 210.93,39.697 210.93,39.602 L210.93,39.203 C210.93,36.239 210.93,35.707 210.968,35.099 C211.006,34.434 211.158,34.111 211.671,34.016 C211.899,33.978 212.013,33.959 212.146,33.959 C212.222,33.959 212.298,33.921 212.298,33.845 C212.298,33.731 212.203,33.693 211.994,33.693 C211.424,33.693 210.227,33.75 210.132,33.75 C210.037,33.75 208.84,33.693 207.985,33.693 C207.776,33.693 207.681,33.731 207.681,33.845 C207.681,33.921 207.757,33.959 207.833,33.959 C208.004,33.959 208.327,33.978 208.479,34.016 C209.106,34.149 209.258,34.453 209.296,35.099 C209.334,35.707 209.334,36.239 209.334,39.203 L209.334,42.547 C209.334,44.371 209.334,45.872 209.239,46.67 C209.163,47.221 209.068,47.639 208.688,47.715 C208.517,47.753 208.289,47.791 208.118,47.791 C208.004,47.791 207.966,47.848 207.966,47.905 C207.966,48.019 208.061,48.057 208.27,48.057 C208.84,48.057 210.037,48 210.132,48 C210.227,48 211.424,48.057 212.469,48.057 C212.678,48.057 212.773,48 212.773,47.905 C212.773,47.848 212.735,47.791 212.621,47.791 C212.45,47.791 212.032,47.753 211.766,47.715 C211.196,47.639 211.082,47.221 211.025,46.67 C210.93,45.872 210.93,44.371 210.93,42.547 L210.93,40.552 C210.93,40.457 210.987,40.438 211.044,40.438 L219.1,40.438 C219.157,40.438 219.214,40.476 219.214,40.552 L219.214,42.547 C219.214,44.371 219.214,45.872 219.119,46.67 C219.043,47.221 218.948,47.639 218.568,47.715 C218.397,47.753 218.169,47.791 217.998,47.791 C217.884,47.791 217.846,47.848 217.846,47.905 C217.846,48.019 217.941,48.057 218.15,48.057 C218.72,48.057 219.917,48 220.012,48 C220.107,48 221.304,48.057 222.349,48.057 C222.558,48.057 222.653,48 222.653,47.905 C222.653,47.848 222.615,47.791 222.501,47.791 C222.33,47.791 221.912,47.753 221.646,47.715 C221.076,47.639 220.962,47.221 220.905,46.67 C220.81,45.872 220.81,44.371 220.81,42.547 L220.81,39.203 C220.81,36.239 220.81,35.707 220.848,35.099 C220.886,34.434 221.038,34.111 221.551,34.016 C221.779,33.978 221.893,33.959 222.026,33.959 C222.102,33.959 222.178,33.921 222.178,33.845 C222.178,33.731 222.083,33.693 221.874,33.693 C221.304,33.693 220.107,33.75 220.012,33.75 C219.917,33.75 218.72,33.693 217.865,33.693 C217.656,33.693 217.561,33.731 217.561,33.845 C217.561,33.921 217.637,33.959 217.713,33.959 C217.884,33.959 218.207,33.978 218.359,34.016 C218.986,34.149 219.138,34.453 219.176,35.099 C219.214,35.707 219.214,36.239 219.214,39.203 L219.214,39.602 C219.214,39.697 219.157,39.716 219.1,39.716 L211.044,39.716 Z M232.257,48.323 C227.051,48.323 224.885,44.276 224.885,40.856 C224.885,37.778 227.127,33.427 232.371,33.427 C236.646,33.427 239.838,36.125 239.838,40.552 C239.838,44.808 236.836,48.323 232.257,48.323 Z M232.77,47.601 C234.48,47.601 238.014,46.613 238.014,41.084 C238.014,36.524 235.24,34.073 232.238,34.073 C229.065,34.073 226.69,36.163 226.69,40.324 C226.69,44.751 229.35,47.601 232.77,47.601 Z M249.594,48.323 C244.388,48.323 242.222,44.276 242.222,40.856 C242.222,37.778 244.464,33.427 249.708,33.427 C253.983,33.427 257.175,36.125 257.175,40.552 C257.175,44.808 254.173,48.323 249.594,48.323 Z M250.107,47.601 C251.817,47.601 255.351,46.613 255.351,41.084 C255.351,36.524 252.577,34.073 249.575,34.073 C246.402,34.073 244.027,36.163 244.027,40.324 C244.027,44.751 246.687,47.601 250.107,47.601 Z M263.169,39.203 C263.169,36.239 263.169,35.707 263.207,35.099 C263.245,34.434 263.397,34.111 263.948,34.016 C264.176,33.978 264.442,33.959 264.575,33.959 C264.651,33.959 264.727,33.921 264.727,33.845 C264.727,33.731 264.632,33.693 264.423,33.693 C263.853,33.693 262.466,33.75 262.371,33.75 C262.276,33.75 261.079,33.693 260.224,33.693 C260.015,33.693 259.92,33.731 259.92,33.845 C259.92,33.921 259.996,33.959 260.072,33.959 C260.243,33.959 260.566,33.978 260.718,34.016 C261.345,34.149 261.497,34.453 261.535,35.099 C261.573,35.707 261.573,36.239 261.573,39.203 L261.573,42.547 C261.573,44.371 261.573,45.872 261.478,46.67 C261.402,47.221 261.307,47.639 260.927,47.715 C260.756,47.753 260.528,47.791 260.357,47.791 C260.243,47.791 260.205,47.848 260.205,47.905 C260.205,48.019 260.3,48.057 260.509,48.057 C261.212,48.057 261.782,48 262.371,48 C264.214,48 265.829,48.114 267.463,48.114 C268.47,48.114 268.527,48.038 268.66,47.601 C268.812,47.05 268.945,45.91 268.945,45.701 C268.945,45.492 268.926,45.416 268.831,45.416 C268.717,45.416 268.679,45.511 268.66,45.663 C268.603,46.024 268.413,46.499 268.166,46.803 C267.71,47.354 266.874,47.373 265.867,47.373 C264.385,47.373 263.891,47.24 263.587,46.936 C263.245,46.594 263.169,45.378 263.169,42.585 L263.169,39.203 Z" id="Catholic-high-School" opacity="0.75"></path>
                        <path d="M6.44,24.51 C8.06,24.51 9.68,24.15 10.97,23.25 C13.04,21.78 13.52,19.5 13.52,18.27 C13.52,15.87 12.68,14.01 9.14,11.22 L8.3,10.56 C5.42,8.31 4.64,7.23 4.64,5.52 C4.64,3.33 6.26,2.04 8.33,2.04 C11.09,2.04 11.9,3.3 12.08,3.63 C12.26,3.96 12.44,4.77 12.47,5.13 C12.5,5.37 12.53,5.52 12.71,5.52 C12.86,5.52 12.92,5.31 12.92,4.83 C12.92,2.79 13.04,1.8 13.04,1.65 C13.04,1.5 12.98,1.44 12.74,1.44 C12.5,1.44 12.26,1.41 11.69,1.29 C10.94,1.11 10.07,0.99 8.9,0.99 C5.09,0.99 2.69,3.18 2.69,6.39 C2.69,8.43 3.41,10.29 6.59,12.9 L7.94,14.01 C10.52,16.14 11.39,17.34 11.39,19.41 C11.39,21.33 9.98,23.4 7.1,23.4 C5.09,23.4 3.11,22.56 2.66,20.34 C2.57,19.92 2.57,19.5 2.57,19.23 C2.57,18.99 2.54,18.9 2.36,18.9 C2.21,18.9 2.15,19.05 2.12,19.38 C2.09,19.86 1.97,21.06 1.97,22.56 C1.97,23.37 2,23.49 2.42,23.7 C3.65,24.3 5.03,24.51 6.44,24.51 Z M27.53,16.77 L22.07,16.77 C21.92,16.77 21.83,16.86 21.77,17.01 L20.45,20.76 C20.15,21.6 19.94,22.41 19.94,22.89 C19.94,23.43 20.27,23.67 20.93,23.67 L21.14,23.67 C21.41,23.67 21.5,23.76 21.5,23.88 C21.5,24.03 21.26,24.09 21.05,24.09 C20.39,24.09 19.01,24 18.68,24 C18.38,24 17.06,24.09 15.8,24.09 C15.47,24.09 15.32,24.03 15.32,23.88 C15.32,23.76 15.44,23.67 15.68,23.67 C15.83,23.67 16.1,23.67 16.28,23.64 C17.57,23.52 18.08,22.53 18.59,21.27 L24.59,5.46 C24.92,4.59 25.01,4.44 25.22,4.44 C25.37,4.44 25.49,4.56 25.82,5.4 C26.24,6.39 30.32,16.86 31.91,20.61 C32.9,22.98 33.77,23.37 34.19,23.52 C34.58,23.67 35,23.67 35.21,23.67 C35.42,23.67 35.57,23.73 35.57,23.88 C35.57,24.03 35.45,24.09 35.12,24.09 C34.82,24.09 32.57,24.09 30.56,24.03 C29.99,24 29.81,23.97 29.81,23.82 C29.81,23.73 29.9,23.64 30.02,23.61 C30.14,23.55 30.32,23.4 30.14,22.95 L27.77,16.92 C27.71,16.83 27.65,16.77 27.53,16.77 Z M22.37,15.72 L27.17,15.72 C27.29,15.72 27.29,15.63 27.26,15.54 L24.89,8.91 C24.74,8.49 24.71,8.49 24.56,8.91 L22.31,15.54 C22.25,15.66 22.31,15.72 22.37,15.72 Z M38.42,20.34 C38.42,22.53 38.27,23.34 37.61,23.55 C37.22,23.67 36.89,23.67 36.68,23.67 C36.38,23.67 36.26,23.76 36.26,23.88 C36.26,24.06 36.44,24.09 36.71,24.09 C38,24.09 39.11,24 39.32,24 C39.53,24 40.61,24.09 42.23,24.09 C42.56,24.09 42.71,24.03 42.71,23.88 C42.71,23.76 42.59,23.67 42.35,23.67 C42.11,23.67 41.6,23.67 41.12,23.55 C40.37,23.37 40.19,22.59 40.13,20.52 L39.74,8.79 C40.49,9.57 43.49,12.69 46.61,15.93 C49.22,18.48 53.39,22.62 53.51,22.68 C54.98,24.06 55.28,24.27 55.49,24.27 C55.7,24.27 55.76,24.12 55.76,22.62 L55.82,7.56 C55.82,5.76 56.03,5.46 56.72,5.31 C57.05,5.25 57.29,5.25 57.47,5.22 C57.65,5.19 57.74,5.1 57.74,4.98 C57.74,4.83 57.65,4.8 57.32,4.8 C56.15,4.8 55.22,4.89 54.92,4.89 C54.65,4.89 53.39,4.8 52.1,4.8 C51.8,4.8 51.56,4.83 51.56,4.98 C51.56,5.1 51.62,5.22 51.92,5.22 C52.13,5.22 52.58,5.25 53.09,5.34 C53.9,5.55 54.08,6.09 54.11,7.71 L54.44,20.19 C53.66,19.47 50.66,16.38 48.32,14.1 C44.12,9.81 39.95,5.55 39.68,5.25 C39.47,5.04 38.96,4.44 38.75,4.44 C38.51,4.44 38.42,4.74 38.42,5.67 C38.45,10.65 38.42,6.03 38.42,20.34 Z M70.25,5.97 C71.12,5.97 72.05,6 73.19,6 C76.22,6.03 76.61,6.33 76.73,7.53 C76.76,7.83 76.76,7.86 76.76,7.95 C76.76,8.19 76.82,8.31 76.97,8.31 C77.06,8.31 77.18,8.22 77.18,7.95 C77.18,7.71 77.24,5.73 77.24,4.89 C77.24,4.77 77.18,4.62 77.06,4.62 C76.97,4.62 76.88,4.65 76.49,4.74 C76.07,4.83 75.17,4.89 74.33,4.89 L64.49,4.89 C64.46,4.89 63.62,4.86 62.57,4.74 C62.03,4.68 61.46,4.41 61.25,4.41 C61.16,4.41 61.07,4.53 60.98,4.89 C60.8,5.7 60.35,7.68 60.38,7.86 C60.38,8.01 60.41,8.13 60.53,8.13 C60.65,8.13 60.71,8.1 60.8,7.89 C60.86,7.74 60.98,7.38 61.25,6.96 C61.67,6.33 62.09,6.03 64.01,6 C65.21,5.97 66.8,5.97 67.79,5.97 L67.79,16.68 C67.79,18.93 67.79,21.09 67.67,22.17 C67.55,23.19 67.46,23.55 66.89,23.64 C66.65,23.67 66.47,23.67 66.23,23.67 C65.99,23.67 65.9,23.79 65.9,23.88 C65.9,24.03 66.02,24.09 66.35,24.09 C67.13,24.09 68.9,24 69.02,24 C69.14,24 70.91,24.09 72.44,24.09 C72.74,24.09 72.83,24 72.83,23.85 C72.83,23.76 72.71,23.67 72.47,23.67 C72.23,23.67 71.66,23.64 71.3,23.55 C70.55,23.37 70.49,22.95 70.4,22.23 C70.28,21.12 70.25,18.99 70.25,16.68 L70.25,5.97 Z M89.54,16.77 L84.08,16.77 C83.93,16.77 83.84,16.86 83.78,17.01 L82.46,20.76 C82.16,21.6 81.95,22.41 81.95,22.89 C81.95,23.43 82.28,23.67 82.94,23.67 L83.15,23.67 C83.42,23.67 83.51,23.76 83.51,23.88 C83.51,24.03 83.27,24.09 83.06,24.09 C82.4,24.09 81.02,24 80.69,24 C80.39,24 79.07,24.09 77.81,24.09 C77.48,24.09 77.33,24.03 77.33,23.88 C77.33,23.76 77.45,23.67 77.69,23.67 C77.84,23.67 78.11,23.67 78.29,23.64 C79.58,23.52 80.09,22.53 80.6,21.27 L86.6,5.46 C86.93,4.59 87.02,4.44 87.23,4.44 C87.38,4.44 87.5,4.56 87.83,5.4 C88.25,6.39 92.33,16.86 93.92,20.61 C94.91,22.98 95.78,23.37 96.2,23.52 C96.59,23.67 97.01,23.67 97.22,23.67 C97.43,23.67 97.58,23.73 97.58,23.88 C97.58,24.03 97.46,24.09 97.13,24.09 C96.83,24.09 94.58,24.09 92.57,24.03 C92,24 91.82,23.97 91.82,23.82 C91.82,23.73 91.91,23.64 92.03,23.61 C92.15,23.55 92.33,23.4 92.15,22.95 L89.78,16.92 C89.72,16.83 89.66,16.77 89.54,16.77 Z M84.38,15.72 L89.18,15.72 C89.3,15.72 89.3,15.63 89.27,15.54 L86.9,8.91 C86.75,8.49 86.72,8.49 86.57,8.91 L84.32,15.54 C84.26,15.66 84.32,15.72 84.38,15.72 Z M131.99,1.8 L134,20.22 C134.12,21.3 134.33,22.98 135.62,23.4 C136.49,23.67 137.18,23.67 137.48,23.67 C137.63,23.67 137.81,23.7 137.81,23.85 C137.81,24.03 137.72,24.09 137.36,24.09 C136.7,24.09 133.28,24 132.17,23.91 C131.48,23.85 131.33,23.76 131.33,23.61 C131.33,23.49 131.39,23.46 131.54,23.4 C131.75,23.31 131.72,22.86 131.66,22.32 L130.22,6.66 L122.78,22.44 C122.15,23.76 122.06,24.03 121.79,24.03 C121.58,24.03 121.43,23.73 120.86,22.65 C120.08,21.18 117.5,15.99 117.35,15.69 C117.08,15.15 113.63,7.74 113.3,6.93 L112.07,21.06 C112.04,21.54 112.01,21.96 112.01,22.47 C112.01,23.22 112.37,23.46 112.82,23.55 C113.33,23.67 113.72,23.67 113.9,23.67 C114.08,23.67 114.2,23.73 114.2,23.82 C114.2,24.03 114.05,24.09 113.75,24.09 C112.64,24.09 111.11,24 110.87,24 C110.6,24 109.16,24.09 108.35,24.09 C108.05,24.09 107.84,24.06 107.84,23.85 C107.84,23.73 107.99,23.67 108.14,23.67 C108.38,23.67 108.59,23.67 109.04,23.58 C110.03,23.4 110.09,22.32 110.24,21.09 L112.4,1.59 C112.43,1.26 112.55,0.99 112.73,0.99 C112.91,0.99 113.03,1.11 113.18,1.44 L122.36,20.31 L131.18,1.47 C131.3,1.2 131.42,0.99 131.63,0.99 C131.84,0.99 131.93,1.23 131.99,1.8 Z M149.27,16.77 L143.81,16.77 C143.66,16.77 143.57,16.86 143.51,17.01 L142.19,20.76 C141.89,21.6 141.68,22.41 141.68,22.89 C141.68,23.43 142.01,23.67 142.67,23.67 L142.88,23.67 C143.15,23.67 143.24,23.76 143.24,23.88 C143.24,24.03 143,24.09 142.79,24.09 C142.13,24.09 140.75,24 140.42,24 C140.12,24 138.8,24.09 137.54,24.09 C137.21,24.09 137.06,24.03 137.06,23.88 C137.06,23.76 137.18,23.67 137.42,23.67 C137.57,23.67 137.84,23.67 138.02,23.64 C139.31,23.52 139.82,22.53 140.33,21.27 L146.33,5.46 C146.66,4.59 146.75,4.44 146.96,4.44 C147.11,4.44 147.23,4.56 147.56,5.4 C147.98,6.39 152.06,16.86 153.65,20.61 C154.64,22.98 155.51,23.37 155.93,23.52 C156.32,23.67 156.74,23.67 156.95,23.67 C157.16,23.67 157.31,23.73 157.31,23.88 C157.31,24.03 157.19,24.09 156.86,24.09 C156.56,24.09 154.31,24.09 152.3,24.03 C151.73,24 151.55,23.97 151.55,23.82 C151.55,23.73 151.64,23.64 151.76,23.61 C151.88,23.55 152.06,23.4 151.88,22.95 L149.51,16.92 C149.45,16.83 149.39,16.77 149.27,16.77 Z M144.11,15.72 L148.91,15.72 C149.03,15.72 149.03,15.63 149,15.54 L146.63,8.91 C146.48,8.49 146.45,8.49 146.3,8.91 L144.05,15.54 C143.99,15.66 144.05,15.72 144.11,15.72 Z M161,16.68 L161,12.18 C161,8.22 161,7.5 160.94,6.69 C160.88,5.88 160.67,5.43 159.74,5.25 C159.56,5.22 159.26,5.19 159.02,5.19 C158.81,5.19 158.69,5.13 158.69,5.01 C158.69,4.89 158.78,4.8 159.05,4.8 C160.34,4.8 162.17,4.89 162.23,4.89 C162.5,4.89 164.54,4.8 165.38,4.8 C167.06,4.8 168.89,4.95 170.3,5.94 C170.87,6.36 172.1,7.56 172.1,9.6 C172.1,11.25 171.29,13.35 168.92,15.27 C171.11,17.97 172.91,20.19 174.44,21.78 C175.88,23.25 176.78,23.49 177.62,23.61 C177.83,23.64 178.46,23.67 178.55,23.67 C178.79,23.67 178.88,23.76 178.88,23.88 C178.88,24.03 178.76,24.09 178.34,24.09 L176.24,24.09 C174.83,24.09 174.17,24 173.51,23.73 C172.25,23.19 171.35,21.84 169.79,19.83 C168.62,18.39 167.42,16.77 166.91,16.14 C166.79,16.02 166.73,15.96 166.55,15.96 L163.46,15.93 C163.34,15.93 163.31,15.96 163.31,16.08 L163.31,16.5 C163.31,18.9 163.31,21.09 163.46,22.17 C163.55,22.89 163.64,23.49 164.63,23.61 C164.93,23.64 165.26,23.67 165.5,23.67 C165.77,23.67 165.89,23.76 165.89,23.85 C165.89,24 165.77,24.09 165.47,24.09 C163.91,24.09 162.23,24 162.11,24 C161.63,24 160.31,24.09 159.5,24.09 C159.2,24.09 159.08,24.03 159.08,23.85 C159.08,23.76 159.26,23.67 159.44,23.67 C159.65,23.67 159.86,23.67 160.1,23.61 C160.61,23.52 160.79,23.19 160.88,22.47 C161.03,21.39 161,18.93 161,16.68 Z M163.31,6.15 L163.31,14.31 C163.31,14.46 163.34,14.61 163.46,14.67 C163.85,14.88 165.05,15.06 166.13,15.06 C166.76,15.06 167.51,15.03 168.14,14.61 C169.04,14.04 169.64,12.72 169.64,10.8 C169.64,7.53 167.9,5.73 165.23,5.73 C164.48,5.73 163.85,5.79 163.49,5.88 C163.4,5.91 163.31,6 163.31,6.15 Z M195.89,19.17 L195.89,21.87 C195.89,23.07 195.86,23.1 195.53,23.28 C193.88,24.12 191.48,24.42 190.01,24.42 C188.06,24.42 184.28,24.27 181.22,21.72 C179.6,20.37 177.98,17.85 177.98,14.43 C177.98,10.35 180.05,7.44 182.51,5.97 C184.82,4.62 187.37,4.44 189.2,4.44 C191.12,4.44 192.41,4.68 193.49,4.86 C193.97,4.95 195.14,5.1 195.77,5.13 C196.01,5.13 196.01,5.25 196.01,5.37 C196.01,5.73 195.8,6.63 195.8,9.27 C195.8,9.69 195.77,9.81 195.56,9.81 C195.41,9.81 195.38,9.63 195.35,9.45 C195.35,9.18 195.23,8.25 194.78,7.59 C194.09,6.6 191.93,5.49 188.57,5.49 C186.95,5.49 185.06,5.55 183.05,7.08 C181.52,8.25 180.53,10.53 180.53,13.5 C180.53,17.07 182.48,19.71 183.26,20.46 C185.24,22.38 187.46,23.25 190.07,23.25 C190.91,23.25 192.23,23.1 192.92,22.74 C193.22,22.56 193.43,22.26 193.43,21.84 L193.43,17.52 C193.43,15.54 193.28,15.15 192.23,15 C192.05,14.97 191.75,14.94 191.51,14.94 C191.27,14.94 191.15,14.82 191.15,14.73 C191.15,14.58 191.27,14.52 191.6,14.52 C192.8,14.52 194.54,14.58 194.66,14.58 C194.78,14.58 196.55,14.52 197.36,14.52 C197.66,14.52 197.78,14.58 197.78,14.73 C197.78,14.82 197.69,14.94 197.42,14.94 C197.21,14.94 197.15,14.94 196.91,14.97 C196.19,15.06 196.01,15.6 195.95,16.47 C195.89,17.34 195.89,18.09 195.89,19.17 Z M210.59,16.77 L205.13,16.77 C204.98,16.77 204.89,16.86 204.83,17.01 L203.51,20.76 C203.21,21.6 203,22.41 203,22.89 C203,23.43 203.33,23.67 203.99,23.67 L204.2,23.67 C204.47,23.67 204.56,23.76 204.56,23.88 C204.56,24.03 204.32,24.09 204.11,24.09 C203.45,24.09 202.07,24 201.74,24 C201.44,24 200.12,24.09 198.86,24.09 C198.53,24.09 198.38,24.03 198.38,23.88 C198.38,23.76 198.5,23.67 198.74,23.67 C198.89,23.67 199.16,23.67 199.34,23.64 C200.63,23.52 201.14,22.53 201.65,21.27 L207.65,5.46 C207.98,4.59 208.07,4.44 208.28,4.44 C208.43,4.44 208.55,4.56 208.88,5.4 C209.3,6.39 213.38,16.86 214.97,20.61 C215.96,22.98 216.83,23.37 217.25,23.52 C217.64,23.67 218.06,23.67 218.27,23.67 C218.48,23.67 218.63,23.73 218.63,23.88 C218.63,24.03 218.51,24.09 218.18,24.09 C217.88,24.09 215.63,24.09 213.62,24.03 C213.05,24 212.87,23.97 212.87,23.82 C212.87,23.73 212.96,23.64 213.08,23.61 C213.2,23.55 213.38,23.4 213.2,22.95 L210.83,16.92 C210.77,16.83 210.71,16.77 210.59,16.77 Z M205.43,15.72 L210.23,15.72 C210.35,15.72 210.35,15.63 210.32,15.54 L207.95,8.91 C207.8,8.49 207.77,8.49 207.62,8.91 L205.37,15.54 C205.31,15.66 205.37,15.72 205.43,15.72 Z M222.32,16.68 L222.32,12.18 C222.32,8.22 222.32,7.5 222.26,6.69 C222.2,5.88 221.99,5.43 221.06,5.25 C220.88,5.22 220.58,5.19 220.34,5.19 C220.13,5.19 220.01,5.13 220.01,5.01 C220.01,4.89 220.1,4.8 220.37,4.8 C221.66,4.8 223.49,4.89 223.55,4.89 C223.82,4.89 225.86,4.8 226.7,4.8 C228.38,4.8 230.21,4.95 231.62,5.94 C232.19,6.36 233.42,7.56 233.42,9.6 C233.42,11.25 232.61,13.35 230.24,15.27 C232.43,17.97 234.23,20.19 235.76,21.78 C237.2,23.25 238.1,23.49 238.94,23.61 C239.15,23.64 239.78,23.67 239.87,23.67 C240.11,23.67 240.2,23.76 240.2,23.88 C240.2,24.03 240.08,24.09 239.66,24.09 L237.56,24.09 C236.15,24.09 235.49,24 234.83,23.73 C233.57,23.19 232.67,21.84 231.11,19.83 C229.94,18.39 228.74,16.77 228.23,16.14 C228.11,16.02 228.05,15.96 227.87,15.96 L224.78,15.93 C224.66,15.93 224.63,15.96 224.63,16.08 L224.63,16.5 C224.63,18.9 224.63,21.09 224.78,22.17 C224.87,22.89 224.96,23.49 225.95,23.61 C226.25,23.64 226.58,23.67 226.82,23.67 C227.09,23.67 227.21,23.76 227.21,23.85 C227.21,24 227.09,24.09 226.79,24.09 C225.23,24.09 223.55,24 223.43,24 C222.95,24 221.63,24.09 220.82,24.09 C220.52,24.09 220.4,24.03 220.4,23.85 C220.4,23.76 220.58,23.67 220.76,23.67 C220.97,23.67 221.18,23.67 221.42,23.61 C221.93,23.52 222.11,23.19 222.2,22.47 C222.35,21.39 222.32,18.93 222.32,16.68 Z M224.63,6.15 L224.63,14.31 C224.63,14.46 224.66,14.61 224.78,14.67 C225.17,14.88 226.37,15.06 227.45,15.06 C228.08,15.06 228.83,15.03 229.46,14.61 C230.36,14.04 230.96,12.72 230.96,10.8 C230.96,7.53 229.22,5.73 226.55,5.73 C225.8,5.73 225.17,5.79 224.81,5.88 C224.72,5.91 224.63,6 224.63,6.15 Z M242.3,16.68 C242.3,18.93 242.3,21.06 242.15,22.14 C242.06,22.86 241.97,23.46 241.46,23.58 C241.22,23.64 240.89,23.67 240.74,23.67 C240.47,23.67 240.35,23.76 240.35,23.88 C240.35,24.03 240.56,24.09 240.83,24.09 C241.67,24.09 243.44,24 243.53,24 C243.68,24 245.42,24.09 246.95,24.09 C247.25,24.09 247.37,24 247.37,23.88 C247.37,23.76 247.31,23.7 247.04,23.67 C246.92,23.67 246.29,23.64 245.9,23.55 C245.12,23.37 245,23.04 244.88,22.17 C244.73,21.09 244.76,18.99 244.76,16.68 L244.76,12.18 C244.76,8.22 244.73,7.53 244.79,6.72 C244.85,5.85 244.94,5.4 245.81,5.28 C246.02,5.25 246.17,5.25 246.35,5.22 C246.59,5.19 246.68,5.13 246.68,5.01 C246.68,4.86 246.53,4.8 246.23,4.8 C245.39,4.8 243.65,4.89 243.53,4.89 C243.44,4.89 241.73,4.8 240.8,4.8 C240.47,4.8 240.35,4.86 240.35,5.01 C240.35,5.13 240.47,5.19 240.68,5.22 C240.86,5.25 241.07,5.25 241.37,5.31 C242,5.43 242.18,5.88 242.24,6.69 C242.3,7.5 242.3,8.22 242.3,12.18 L242.3,16.68 Z M259.91,5.97 C260.78,5.97 261.71,6 262.85,6 C265.88,6.03 266.27,6.33 266.39,7.53 C266.42,7.83 266.42,7.86 266.42,7.95 C266.42,8.19 266.48,8.31 266.63,8.31 C266.72,8.31 266.84,8.22 266.84,7.95 C266.84,7.71 266.9,5.73 266.9,4.89 C266.9,4.77 266.84,4.62 266.72,4.62 C266.63,4.62 266.54,4.65 266.15,4.74 C265.73,4.83 264.83,4.89 263.99,4.89 L254.15,4.89 C254.12,4.89 253.28,4.86 252.23,4.74 C251.69,4.68 251.12,4.41 250.91,4.41 C250.82,4.41 250.73,4.53 250.64,4.89 C250.46,5.7 250.01,7.68 250.04,7.86 C250.04,8.01 250.07,8.13 250.19,8.13 C250.31,8.13 250.37,8.1 250.46,7.89 C250.52,7.74 250.64,7.38 250.91,6.96 C251.33,6.33 251.75,6.03 253.67,6 C254.87,5.97 256.46,5.97 257.45,5.97 L257.45,16.68 C257.45,18.93 257.45,21.09 257.33,22.17 C257.21,23.19 257.12,23.55 256.55,23.64 C256.31,23.67 256.13,23.67 255.89,23.67 C255.65,23.67 255.56,23.79 255.56,23.88 C255.56,24.03 255.68,24.09 256.01,24.09 C256.79,24.09 258.56,24 258.68,24 C258.8,24 260.57,24.09 262.1,24.09 C262.4,24.09 262.49,24 262.49,23.85 C262.49,23.76 262.37,23.67 262.13,23.67 C261.89,23.67 261.32,23.64 260.96,23.55 C260.21,23.37 260.15,22.95 260.06,22.23 C259.94,21.12 259.91,18.99 259.91,16.68 L259.91,5.97 Z M279.2,16.77 L273.74,16.77 C273.59,16.77 273.5,16.86 273.44,17.01 L272.12,20.76 C271.82,21.6 271.61,22.41 271.61,22.89 C271.61,23.43 271.94,23.67 272.6,23.67 L272.81,23.67 C273.08,23.67 273.17,23.76 273.17,23.88 C273.17,24.03 272.93,24.09 272.72,24.09 C272.06,24.09 270.68,24 270.35,24 C270.05,24 268.73,24.09 267.47,24.09 C267.14,24.09 266.99,24.03 266.99,23.88 C266.99,23.76 267.11,23.67 267.35,23.67 C267.5,23.67 267.77,23.67 267.95,23.64 C269.24,23.52 269.75,22.53 270.26,21.27 L276.26,5.46 C276.59,4.59 276.68,4.44 276.89,4.44 C277.04,4.44 277.16,4.56 277.49,5.4 C277.91,6.39 281.99,16.86 283.58,20.61 C284.57,22.98 285.44,23.37 285.86,23.52 C286.25,23.67 286.67,23.67 286.88,23.67 C287.09,23.67 287.24,23.73 287.24,23.88 C287.24,24.03 287.12,24.09 286.79,24.09 C286.49,24.09 284.24,24.09 282.23,24.03 C281.66,24 281.48,23.97 281.48,23.82 C281.48,23.73 281.57,23.64 281.69,23.61 C281.81,23.55 281.99,23.4 281.81,22.95 L279.44,16.92 C279.38,16.83 279.32,16.77 279.2,16.77 Z M274.04,15.72 L278.84,15.72 C278.96,15.72 278.96,15.63 278.93,15.54 L276.56,8.91 C276.41,8.49 276.38,8.49 276.23,8.91 L273.98,15.54 C273.92,15.66 273.98,15.72 274.04,15.72 Z" id="Santa-Margarita"></path>
                    </g>
                    <g id="SM-logo">
                        <g id="Group-3">
                            <mask id="mask-2" fill="white">
                                <use xlink:href="#path-1"></use>
                            </mask>
                            <g id="Clip-2"></g>
                            <path d="M18.4150595,21.2180205 L18.4150595,20.0537884 L27.1337024,20.0537884 C27.42175,20.3014334 27.8168571,20.640273 28.489881,21.2180205 L18.4150595,21.2180205 Z M64.4681786,63.3676451 L64.4681786,45.2308532 L68.8014881,45.2308532 L68.8014881,24.4745392 L47.8769643,24.4745392 C47.8769643,24.4745392 47.0333571,25.3053925 46.3543095,26.1376109 L42.9451071,23.1754266 L49.3317143,23.1754266 L49.3317143,0.151262799 L29.8717976,0.151262799 C29.8717976,0.151262799 29.5243333,0.173105802 29.5243333,0.173651877 L11.6563452,0.173651877 C11.6467619,0.173651877 10.3001667,0.180204778 10.3001667,0.180204778 L9.34019048,0.180204778 L0,10.1392491 L0,29.0569283 L2.59434524,32.0382253 L0,32.0382253 L0,55.5942662 L17.4501548,55.5942662 L17.4501548,63.3676451 L12.7058571,63.3676451 L12.7058571,80 L38.606869,80 L38.606869,68.5094881 C39.7965714,70.26157 40.6437381,71.5314676 40.6437381,71.5314676 C40.6437381,71.5314676 41.6215119,70.0344027 42.9678333,68.1053925 L42.9678333,80 L68.8693929,80 L68.8693929,63.3676451 L64.4681786,63.3676451 L64.4681786,63.3676451 Z" id="Fill-1" fill="#FFFFFF" mask="url(#mask-2)"></path>
                        </g>
                        <path d="M28.6966071,18.3219113 C28.9846548,18.5695563 29.3797619,18.9083959 30.0527857,19.4861433 L19.9782381,19.4861433 L19.9782381,18.3219113 L28.6966071,18.3219113 Z M31.4349762,1.88341297 L31.4349762,1.90552901 L13.2189762,1.90552901 C13.2099405,1.90552901 11.8633452,1.91208191 11.8633452,1.91208191 L10.2084405,1.91208191 L1.56317857,11.17843 L1.56317857,28.3642321 C1.56317857,28.3642321 4.32947619,31.5961775 5.89402381,33.4236177 L1.56317857,33.4236177 L1.56317857,54.2086007 L19.0133333,54.2086007 L19.0133333,64.7530375 L14.2690357,64.7530375 L14.2690357,78.6146075 L37.0434167,78.6146075 L37.0434167,64.7530375 L33.0526429,64.7530375 L33.0526429,58.0846416 C35.8378333,61.9964505 40.6437381,68.6858703 40.6437381,68.6858703 C40.6437381,68.6858703 45.9967143,62.2776792 48.9330476,58.7909898 L48.9330476,64.7530375 L44.5307381,64.7530375 L44.5307381,78.6146075 L67.3059405,78.6146075 L67.3059405,64.7530375 L62.9047262,64.7530375 L62.9047262,43.4989761 L67.2380357,43.4989761 L67.2380357,26.2066894 L48.39775,26.2066894 C48.39775,26.2066894 47.2055833,27.8476451 46.6390714,28.6282594 C46.1536071,28.1791126 41.6554643,24.0193857 39.2453929,21.7900341 L47.7679881,21.7900341 L47.7679881,1.88341297 L31.4349762,1.88341297 L31.4349762,1.88341297 Z" id="Fill-4" fill="#0736A4"></path>
                        <path d="M61.0825238,66.4849147 L61.0825238,41.767099 L65.4158333,41.767099 L65.4158333,27.9385666 L49.1991905,27.9385666 L45.702369,32.7513993 L45.702369,30.203413 L35.9873333,21.2180205 L18.1554881,21.2180205 L18.1554881,16.5900341 L29.2554524,16.5900341 C30.1124762,17.3255973 33.2957857,20.058157 33.2957857,20.058157 L45.9457857,20.058157 L45.9457857,3.61501706 L33.0860476,3.61501706 L33.0860476,5.63440273 C32.4595714,5.03863481 30.9851071,3.63740614 30.9851071,3.63740614 L13.1335476,3.63740614 L11.7869524,3.64423208 L10.879,3.64423208 L3.21425,11.8593857 L3.21425,27.7255973 L8.62171429,34.0423208 L16.6689762,34.0423208 L16.6689762,36.3920819 L16.6676071,37.3867577 C15.4050714,36.2555631 14.1770357,35.1554949 14.1770357,35.1554949 L3.21425,35.1554949 L3.21425,52.4769966 L16.0739881,52.4769966 L16.0739881,50.4406826 C16.6873214,51.04 18.1587738,52.4769966 18.1587738,52.4769966 L20.6644048,52.4769966 L20.6644048,66.4849147 L15.9201071,66.4849147 L15.9201071,76.8824573 L35.2209405,76.8824573 L35.2209405,66.4849147 L31.2304405,66.4849147 L31.2304405,52.6536519 C31.6715476,53.2734471 40.6311429,65.8561092 40.6311429,65.8561092 C40.6311429,65.8561092 47.0727857,58.2053242 50.5843929,54.0349488 L50.5843929,66.4849147 L46.1818095,66.4849147 L46.1818095,76.8824573 L65.4834643,76.8824573 L65.4834643,66.4849147 L61.0825238,66.4849147" id="Fill-5" fill="#B3A369"></path>
                        <path d="M33.1367024,68.5635495 L33.1367024,74.8043686 L18.0040714,74.8043686 L18.0040714,68.5635495 L22.7486429,68.5635495 L22.7486429,52.400273 L29.1462024,52.400273 L29.1462024,68.5635495 L33.1367024,68.5635495 Z M22.7486429,39.7288737 L18.7491071,39.7288737 L18.7491071,36.3920819 L18.7532143,36.3920819 L18.7532143,30.022116 L29.5681429,30.022116 L32.5485595,32.9782935 L32.5485595,38.21843 L31.2315357,39.7288737 L22.7486429,39.7288737 Z M63.3995,68.5635495 L63.3995,74.8043686 L48.2660476,74.8043686 L48.2660476,68.5635495 L52.6683571,68.5635495 L52.6683571,48.3276451 L40.65825,62.4532423 L33.8527143,52.7467577 L36.9040476,52.7467577 L45.6257024,43.3504437 L45.6257024,36.4005461 L50.2626667,30.0166553 L63.3315952,30.0166553 L63.3315952,39.6887372 L58.9985595,39.6887372 L58.9985595,68.5635495 L63.3995,68.5635495 L63.3995,68.5635495 Z" id="Fill-6" fill="#0736A4"></path>
                        <polyline id="Fill-7" fill="#FFFFFF" points="60.6123929 35.7807509 56.2500595 35.7807509 56.2500595 31.665529 54.4390833 31.665529 54.4390833 35.7807509 50.0770238 35.7807509 50.0770238 37.5716041 54.4390833 37.5716041 54.4390833 47.7608191 56.2500595 47.7608191 56.2500595 37.5716041 60.6123929 37.5716041 60.6123929 35.7807509"></polyline>
                        <polyline id="Fill-8" fill="#0736A4" points="37.7074048 5.69365188 35.1700119 5.69365188 35.1700119 10.487099 30.1510833 5.71576792 13.1335476 5.71576792 13.1480595 5.72232082 11.7869524 5.72232082 5.29821429 12.676587 5.29821429 26.9594539 9.58278571 31.9642321 16.7524881 31.9642321 16.7524881 27.6739932 30.384369 27.6739932 34.556131 31.7264164 34.556131 39.0451877 32.353881 41.730785 18.3983571 41.730785 13.3786071 37.2338567 5.29821429 37.2338567 5.29821429 50.3983618 13.98975 50.3983618 13.98975 45.4956997 19.0095 50.3983618 36.0270357 50.3983618 43.618131 42.2195222 43.618131 31.1104437 35.1694643 23.2963823 16.07125 23.2963823 16.07125 14.5116724 30.0289643 14.5116724 34.0690238 17.9797952 43.8615476 17.9797952 43.8615476 5.69365188 37.7074048 5.69365188"></polyline>
                    </g>
                </g>
            </g>
        </g>
    </g>
</svg>